<svg width="90" height="27" viewBox="0 0 90 27" fill="none" xmlns="http://www.w3.org/2000/svg">
<path d="M28.35 6.6915C28.026 5.47651 27.0675 4.51801 25.848 4.18951C23.643 3.60001 14.796 3.60001 14.796 3.60001C14.796 3.60001 5.95346 3.60001 3.74397 4.18951C2.52897 4.51351 1.57047 5.47201 1.24197 6.6915C0.652466 8.8965 0.652466 13.5 0.652466 13.5C0.652466 13.5 0.652466 18.1035 1.24197 20.3085C1.56597 21.5235 2.52447 22.482 3.74397 22.8105C5.95346 23.4 14.796 23.4 14.796 23.4C14.796 23.4 23.643 23.4 25.848 22.8105C27.063 22.4865 28.0215 21.528 28.35 20.3085C28.9395 18.1035 28.9395 13.5 28.9395 13.5C28.9395 13.5 28.9395 8.8965 28.35 6.6915Z" fill="#FF0000"/>
<path d="M11.97 17.7435L19.3185 13.5L11.97 9.2565V17.7435Z" fill="white"/>
<path d="M41.7105 21.6135C41.1525 21.2355 40.752 20.6505 40.518 19.854C40.284 19.0575 40.1625 18 40.1625 16.677V14.877C40.1625 13.5405 40.2975 12.4695 40.5675 11.6595C40.8375 10.8495 41.2605 10.26 41.832 9.89101C42.4035 9.52201 43.155 9.33301 44.0865 9.33301C45.0045 9.33301 45.738 9.52201 46.2915 9.90001C46.845 10.278 47.25 10.8675 47.5065 11.6685C47.763 12.4695 47.889 13.5405 47.889 14.8725V16.6725C47.889 17.9955 47.763 19.0575 47.5155 19.8585C47.268 20.6595 46.863 21.249 46.3005 21.618C45.7425 21.987 44.982 22.176 44.0235 22.176C43.0425 22.1805 42.2685 21.9915 41.7105 21.6135ZM44.847 19.6695C45 19.2645 45.081 18.603 45.081 17.6895V13.824C45.081 12.933 45.0045 12.285 44.847 11.871C44.694 11.4615 44.4195 11.2545 44.028 11.2545C43.65 11.2545 43.3845 11.4615 43.227 11.871C43.074 12.2805 42.993 12.933 42.993 13.824V17.6895C42.993 18.6075 43.065 19.269 43.2135 19.6695C43.362 20.0745 43.632 20.277 44.0235 20.277C44.4195 20.277 44.6895 20.0745 44.847 19.6695Z" fill="#282828"/>
<path d="M84.6719 16.7085V17.334C84.6719 18.1305 84.6944 18.7245 84.7439 19.125C84.7889 19.521 84.8879 19.8135 85.0364 19.9935C85.1849 20.1735 85.4144 20.268 85.7249 20.268C86.1434 20.268 86.4314 20.106 86.5844 19.782C86.7374 19.458 86.8229 18.918 86.8364 18.162L89.2439 18.3015C89.2574 18.4095 89.2619 18.558 89.2619 18.747C89.2619 19.8945 88.9469 20.7495 88.3214 21.3165C87.6959 21.8835 86.8094 22.167 85.6619 22.167C84.2849 22.167 83.3219 21.735 82.7684 20.871C82.2149 20.007 81.9404 18.675 81.9404 16.866V14.7015C81.9404 12.8385 82.2284 11.484 82.7999 10.6245C83.3714 9.76951 84.3524 9.34201 85.7429 9.34201C86.7014 9.34201 87.4349 9.51751 87.9479 9.86851C88.4609 10.2195 88.8209 10.764 89.0324 11.5065C89.2394 12.249 89.3474 13.275 89.3474 14.58V16.704H84.6719V16.7085ZM85.0274 11.4885C84.8879 11.664 84.7934 11.952 84.7439 12.348C84.6944 12.744 84.6719 13.3515 84.6719 14.157V15.048H86.7149V14.157C86.7149 13.3605 86.6879 12.7575 86.6339 12.348C86.5799 11.9385 86.4809 11.646 86.3414 11.4795C86.2019 11.313 85.9814 11.2275 85.6844 11.2275C85.3874 11.223 85.1669 11.313 85.0274 11.4885Z" fill="#282828"/>
<path d="M34.9154 16.4745L31.7384 5.00401H34.5104L35.6219 10.2015C35.9054 11.484 36.1124 12.573 36.2474 13.4775H36.3284C36.4229 12.8295 36.6299 11.745 36.9539 10.2195L38.1059 4.99951H40.8779L37.6649 16.4745V21.978H34.9154V16.4745Z" fill="#282828"/>
<path d="M56.9024 9.57602V21.9735H54.7199L54.4769 20.457H54.4184C53.8244 21.6045 52.9334 22.176 51.7499 22.176C50.9264 22.176 50.3189 21.906 49.9274 21.366C49.5359 20.826 49.3424 19.9845 49.3424 18.837V9.57602H52.1324V18.6795C52.1324 19.233 52.1909 19.629 52.3124 19.863C52.4339 20.097 52.6364 20.2185 52.9199 20.2185C53.1629 20.2185 53.3969 20.1465 53.6174 19.998C53.8379 19.8495 54.0044 19.6605 54.1124 19.431V9.57602H56.9024Z" fill="#282828"/>
<path d="M71.2214 9.57602V21.9735H69.0389L68.7959 20.457H68.7374C68.1434 21.6045 67.2524 22.176 66.0689 22.176C65.2454 22.176 64.6379 21.906 64.2464 21.366C63.8549 20.826 63.6614 19.9845 63.6614 18.837V9.57602H66.4514V18.6795C66.4514 19.233 66.5099 19.629 66.6314 19.863C66.7529 20.097 66.9554 20.2185 67.2389 20.2185C67.4819 20.2185 67.7159 20.1465 67.9364 19.998C68.1569 19.8495 68.3234 19.6605 68.4314 19.431V9.57602H71.2214Z" fill="#282828"/>
<path d="M64.4894 7.2495H61.7174V21.9735H58.9859V7.2495H56.2139V5.004H64.4849V7.2495H64.4894Z" fill="#282828"/>
<path d="M80.4599 11.5605C80.2889 10.7775 80.0189 10.2105 79.6409 9.85951C79.2629 9.50851 78.7454 9.33301 78.0839 9.33301C77.5709 9.33301 77.0939 9.47701 76.6484 9.76951C76.2029 10.0575 75.8609 10.44 75.6179 10.9125H75.5954V4.37851H72.9044V21.978H75.2084L75.4919 20.8035H75.5504C75.7664 21.222 76.0904 21.5505 76.5224 21.7935C76.9544 22.0365 77.4314 22.158 77.9579 22.158C78.9029 22.158 79.5959 21.7215 80.0414 20.853C80.4869 19.9845 80.7074 18.6255 80.7074 16.776V14.814C80.7119 13.428 80.6264 12.3435 80.4599 11.5605ZM77.8994 16.6185C77.8994 17.523 77.8634 18.2295 77.7869 18.7425C77.7149 19.2555 77.5889 19.62 77.4134 19.836C77.2379 20.052 77.0039 20.16 76.7069 20.16C76.4774 20.16 76.2659 20.106 76.0679 19.998C75.8744 19.89 75.7124 19.728 75.5909 19.512V12.4695C75.6854 12.132 75.8474 11.8575 76.0769 11.6415C76.3064 11.4255 76.5539 11.3175 76.8239 11.3175C77.1074 11.3175 77.3279 11.43 77.4809 11.6505C77.6339 11.871 77.7419 12.249 77.8049 12.771C77.8634 13.2975 77.8949 14.0445 77.8949 15.0165V16.6185H77.8994Z" fill="#282828"/>
</svg>
